<svg width="475.084" height="475.085" viewBox="0 0 475.084 475.085" xmlns="http://www.w3.org/2000/svg" xmlns:xlink="http://www.w3.org/1999/xlink" id="Capa_1" overflow="hidden"><g><g><path d="M365.446 401.998C365.446 412.09 369.025 420.7 376.157 427.832 383.289 434.971 391.906 438.543 402.002 438.543 412.083 438.543 420.7 434.971 427.832 427.832 434.971 420.7 438.543 412.09 438.543 401.998 438.543 391.906 434.975 383.296 427.832 376.157 420.7 369.025 412.083 365.453 402.002 365.453 391.906 365.453 383.289 369.025 376.157 376.157 369.025 383.296 365.446 391.906 365.446 401.998Z" fill="#7E043E"/><path d="M469.658 78.51C466.04 74.893 461.76 73.084 456.81 73.084L113.918 73.084C113.725 71.753 113.297 69.328 112.631 65.807 111.965 62.284 111.443 59.478 111.062 57.382 110.679 55.295 109.969 52.771 108.92 49.821 107.873 46.869 106.636 44.535 105.209 42.826 103.784 41.108 101.881 39.637 99.501 38.396 97.123 37.163 94.409 36.543 91.365 36.543L18.276 36.543C13.324 36.543 9.042 38.355 5.426 41.967 1.809 45.583 0 49.868 0 54.816 0 59.764 1.809 64.047 5.426 67.663 9.045 71.28 13.328 73.087 18.276 73.087L76.513 73.087 127.045 308.063C126.667 308.823 124.716 312.436 121.193 318.911 117.672 325.386 114.865 331.046 112.773 335.899 110.68 340.758 109.633 344.515 109.633 347.178 109.633 352.126 111.442 356.41 115.057 360.032 118.678 363.638 122.959 365.453 127.908 365.453L146.18 365.453 401.995 365.453 420.256 365.453C425.204 365.453 429.488 363.639 433.103 360.032 436.723 356.411 438.53 352.127 438.53 347.178 438.53 342.229 436.723 337.945 433.103 334.331 429.489 330.717 425.205 328.903 420.256 328.903L157.596 328.903C162.166 319.765 164.45 313.681 164.45 310.635 164.45 308.726 164.212 306.631 163.735 304.352 163.258 302.073 162.688 299.547 162.022 296.783 161.355 294.031 160.929 291.984 160.739 290.65L458.816 255.819C463.569 255.244 467.474 253.205 470.519 249.679 473.565 246.161 475.084 242.117 475.084 237.546L475.084 91.363C475.082 86.415 473.278 82.132 469.658 78.51Z" fill="#7E043E"/><path d="M109.632 401.998C109.632 412.09 113.199 420.7 120.338 427.832 127.479 434.971 136.088 438.543 146.179 438.543 156.264 438.543 164.878 434.971 172.014 427.832 179.153 420.7 182.724 412.09 182.724 401.998 182.724 391.906 179.156 383.296 172.014 376.157 164.877 369.025 156.264 365.453 146.179 365.453 136.089 365.453 127.475 369.025 120.338 376.157 113.203 383.296 109.632 391.906 109.632 401.998Z" fill="#7E043E"/></g></g><g></g><g></g><g></g><g></g><g></g><g></g><g></g><g></g><g></g><g></g><g></g><g></g><g></g><g></g><g></g></svg>